<?xml version="1.0" encoding="utf-8"?>
<!-- Generator: Adobe Illustrator 16.0.4, SVG Export Plug-In . SVG Version: 6.00 Build 0)  -->
<!DOCTYPE svg PUBLIC "-//W3C//DTD SVG 1.1//EN" "http://www.w3.org/Graphics/SVG/1.1/DTD/svg11.dtd">
<svg version="1.1" id="Layer_1" xmlns="http://www.w3.org/2000/svg" xmlns:xlink="http://www.w3.org/1999/xlink" x="0px" y="0px"
	 width="500px" height="500px" viewBox="0 0 500 500" enable-background="new 0 0 500 500" xml:space="preserve">
<g>
	<path fill="#E9A246" d="M389.31,94.687c0,0,9.495-7.887,9.521-7.908c3.592-2.969,8.261-5.865,12.812-7.023
		c9.076,36.416-4.202,74.476-18.228,107.796c-3.566,8.472-6.917,18.049-11.941,25.721c-6.34-6.604-12.543-13.442-18.751-20.21
		c15.455,16.847,31.242,31.667,38.6,54.071c7.252,22.087,5.38,45.759-0.956,67.813c-3.501,12.183-7.72,25.33-13.578,36.607
		c-22.514,43.328-60.827,85.648-103.415,109.95c-11.587,6.61-24.831,11.933-37.99,14.416c-13.25,2.503-28.768,2.828-42.08,0.463
		c-41.208-7.323-79.365-32.058-105.299-64.589c-17.21-21.587-24.995-48.411-30.638-75.021c-4.813-22.695-5.57-45.83-5.231-68.955
		c0.298-20.358,1.254-46.305,18.78-60.042l4.099,14.003C73.951,177.84,77.34,135.593,97.162,94.687
		c1.782,1.572,3.443,3.165,4.99,4.783"/>
	<path d="M222.666,481.338c-6.902,0-13.689-0.554-19.947-1.666c-10.329-1.836-20.703-4.792-30.832-8.788
		c-9.83-3.877-19.496-8.758-28.727-14.506c-18.039-11.23-34.557-25.928-47.769-42.5c-8.16-10.236-14.758-22.185-20.169-36.53
		c-4.211-11.162-7.642-23.461-11.124-39.881c-5.213-24.583-5.606-49.027-5.303-69.697c0.159-10.849,0.522-22.349,3.014-33.203
		c2.947-12.84,8.317-22.307,16.405-28.908c-2.803-16.646-3.488-33.021-2.034-48.868c1.987-21.661,8.035-43.045,17.976-63.56
		l1.917-3.957l3.298,2.908c1.836,1.619,3.584,3.295,5.195,4.98l-4.829,4.617c-0.487-0.509-0.988-1.019-1.5-1.524
		c-8.444,18.526-13.622,37.729-15.404,57.147c-1.875,20.442-0.052,41.827,5.42,63.562l-6.445,1.753l-2.598-8.877
		c-5.137,5.437-8.717,12.757-10.889,22.222c-2.345,10.218-2.691,21.315-2.845,31.806c-0.298,20.3,0.083,44.276,5.159,68.214
		c3.409,16.075,6.752,28.075,10.839,38.908c5.162,13.683,11.424,25.042,19.143,34.724c12.743,15.985,28.675,30.16,46.075,40.994
		c8.89,5.534,18.192,10.232,27.647,13.963c9.716,3.832,19.658,6.667,29.549,8.425c12.595,2.237,27.494,2.072,40.875-0.455
		c12.082-2.282,24.861-7.136,36.954-14.035c20.23-11.545,40.441-27.87,58.446-47.215c17.432-18.729,32.529-39.951,43.661-61.375
		c5.896-11.353,10.049-24.563,13.331-35.99c7.002-24.375,7.336-46.528,0.993-65.85c-4.734-14.419-13.17-25.665-22.808-36.507
		c-4.049-4.302-8.061-8.683-11.971-12.953c-1.002-1.095-2.005-2.189-3.007-3.282c-0.034-0.038-0.068-0.075-0.104-0.112l0,0
		l4.923-4.517c1.929,2.102,3.895,4.206,5.793,6.24c3.188,3.412,6.333,6.781,9.369,10.193c0.174,0.185,0.349,0.37,0.522,0.555
		c2.734-4.956,4.986-10.528,7.18-15.952c0.746-1.847,1.52-3.756,2.288-5.583c6.426-15.268,13.541-33.402,17.591-52.146
		c3.999-18.515,4.428-34.907,1.292-49.972c-2.69,1.185-5.569,2.993-8.26,5.216c-0.067,0.056-9.515,7.903-9.515,7.903l-4.27-5.139
		c0,0,9.498-7.89,9.523-7.911c2.676-2.212,8.063-6.149,14.12-7.688l3.253-0.827l0.812,3.256c4.251,17.056,4.111,35.562-0.427,56.572
		c-4.166,19.28-11.418,37.776-17.964,53.328c-0.751,1.784-1.479,3.586-2.251,5.495c-2.586,6.398-5.252,12.992-8.774,18.849
		c7.962,9.632,14.786,19.984,19.027,32.899c3.557,10.837,5.166,22.634,4.782,35.063c-0.343,11.056-2.262,22.734-5.701,34.715
		c-3.375,11.742-7.656,25.352-13.825,37.224c-11.406,21.953-26.862,43.686-44.698,62.849
		c-18.459,19.832-39.215,36.591-60.023,48.466c-12.729,7.263-26.226,12.38-39.026,14.798
		C238.481,480.624,230.499,481.338,222.666,481.338z"/>
</g>
<path d="M288.588,335.832c-0.908,0-1.785-0.496-2.23-1.359c-0.633-1.229-0.147-2.74,1.082-3.373
	c0.717-0.369,17.873-9.11,47.916-17.168c17.611-4.724,35.99-8.211,54.631-10.365c23.294-2.692,47.061-3.299,70.641-1.805
	c1.381,0.088,2.43,1.277,2.342,2.658s-1.279,2.43-2.658,2.342c-23.282-1.477-46.751-0.875-69.75,1.781
	c-18.396,2.127-36.531,5.568-53.906,10.229c-29.528,7.918-46.75,16.695-46.922,16.783
	C289.365,335.742,288.975,335.832,288.588,335.832z"/>
<path d="M288.587,341.846c-0.989,0-1.927-0.59-2.321-1.562c-0.521-1.281,0.096-2.743,1.377-3.265
	c0.236-0.097,5.914-2.395,15.902-5.482c9.188-2.844,23.897-6.908,41.785-10.135c20.112-3.627,40.069-5.477,59.315-5.496
	c0.107,0,0.22,0,0.327,0c23.975,0,46.902,2.854,68.162,8.484c1.338,0.354,2.135,1.727,1.78,3.063
	c-0.354,1.336-1.726,2.134-3.062,1.778c-20.841-5.52-43.341-8.317-66.88-8.317c-0.106,0-0.215,0-0.322,0
	c-18.951,0.021-38.609,1.845-58.432,5.418c-33.741,6.085-56.465,15.235-56.689,15.327
	C289.221,341.786,288.9,341.846,288.587,341.846z"/>
<path d="M291.593,348.359c-1.026,0-1.989-0.637-2.356-1.657c-0.469-1.302,0.205-2.736,1.508-3.205
	c0.833-0.302,20.78-7.404,51.884-11.526c18.254-2.42,36.539-3.285,54.347-2.572c22.278,0.892,43.871,4.269,64.18,10.037
	c1.331,0.379,2.104,1.765,1.725,3.094c-0.378,1.332-1.763,2.104-3.095,1.727c-19.898-5.652-41.068-8.966-62.919-9.847
	c-17.503-0.706-35.482,0.139-53.438,2.511c-24.488,3.234-44.06,8.801-50.986,11.293C292.16,348.312,291.875,348.359,291.593,348.359
	z"/>
<path d="M27.506,341.846c-0.711,0-1.418-0.303-1.914-0.888c-0.894-1.058-0.762-2.638,0.294-3.53
	c12.266-10.379,28.376-16.861,47.884-19.27c15.449-1.906,33.064-1.273,52.357,1.881c32.73,5.352,59.419,16.293,59.685,16.404
	c1.278,0.527,1.886,1.992,1.357,3.271c-0.528,1.278-1.993,1.888-3.272,1.358c-0.261-0.108-26.497-10.855-58.674-16.104
	c-18.805-3.067-35.927-3.685-50.889-1.831c-18.501,2.291-33.712,8.385-45.211,18.115C28.653,341.65,28.078,341.846,27.506,341.846z"
	/>
<path d="M27.504,366.9c-0.574,0-1.15-0.195-1.621-0.596c-1.054-0.896-1.183-2.479-0.287-3.531
	c11.312-13.316,26.736-22.599,45.844-27.588c15.147-3.957,32.631-5.233,51.964-3.795c32.779,2.439,60.014,12.006,60.285,12.104
	c1.304,0.462,1.986,1.895,1.522,3.197c-0.463,1.305-1.896,1.985-3.199,1.522l0,0c-0.266-0.094-26.961-9.459-59.09-11.834
	c-18.762-1.387-35.676-0.153-50.272,3.667c-18.067,4.729-32.614,13.466-43.236,25.971C28.919,366.602,28.213,366.9,27.504,366.9z"/>
<path d="M44.541,373.916c-0.507,0-1.019-0.152-1.462-0.473c-1.123-0.81-1.377-2.375-0.569-3.498
	c8.019-11.129,20.647-18.834,37.534-22.901c13.281-3.198,29.236-4.165,47.423-2.874c30.802,2.188,57.839,10.229,58.109,10.311
	c1.325,0.396,2.076,1.793,1.678,3.119c-0.398,1.325-1.795,2.075-3.12,1.68c-0.265-0.079-26.845-7.979-57.106-10.116
	c-17.656-1.247-33.083-0.317-45.85,2.763c-15.668,3.78-27.311,10.829-34.602,20.951C46.086,373.555,45.319,373.916,44.541,373.916z"
	/>
<path d="M156.795,236.611c-0.855,0-1.689-0.439-2.157-1.228c-0.706-1.19-0.314-2.727,0.876-3.433
	c0.31-0.184,7.694-4.541,16.703-7.84c12.651-4.633,21.961-4.811,27.67-0.529c1.107,0.831,1.332,2.4,0.501,3.507
	s-2.401,1.332-3.508,0.501c-4.206-3.154-12.139-2.73-22.941,1.226c-8.578,3.142-15.798,7.401-15.869,7.444
	C157.67,236.498,157.229,236.611,156.795,236.611z"/>
<path d="M343.209,241.622c-0.92,0-1.804-0.507-2.243-1.385c-8.903-17.806-42.165-5.906-42.499-5.783
	c-1.301,0.474-2.738-0.194-3.214-1.493s0.192-2.737,1.491-3.213c0.377-0.138,9.343-3.386,19.719-4.154
	c14.372-1.064,24.396,3.224,28.984,12.402c0.619,1.238,0.118,2.742-1.119,3.361C343.968,241.537,343.585,241.622,343.209,241.622z"
	/>
<path d="M246.253,349.85c-5.191,0-9.642-2.742-15.273-6.217l-0.577-0.355c-3.992-2.459-9.501-6.312-11.244-11.373
	c-1.154-3.35-0.5-6.662,1.891-9.581c3.191-3.896,7.996-4.347,11.332-4.347c1.689,0,3.381,0.127,5.017,0.248
	c1.5,0.112,2.916,0.219,4.199,0.219c1.064,0,1.906-0.074,2.576-0.227c2.053-0.467,5.244-1.023,8.797-1.023
	c8.367,0,14.072,3.231,16.064,9.102c1.131,3.338,0.285,6.871-2.518,10.502c-2,2.594-4.701,4.854-6.672,6.504
	c-0.455,0.383-0.887,0.742-1.25,1.059C254.282,348.104,250.36,349.85,246.253,349.85z M232.381,324.656
	c-3.23,0-5.073,0.568-6.164,1.898c-1.136,1.387-1.028,2.344-0.743,3.174c0.773,2.244,3.61,4.89,8.431,7.858l0.58,0.358
	c4.916,3.031,8.469,5.223,11.767,5.223c1.513,0,3.984-0.4,7.963-3.855c0.409-0.354,0.862-0.733,1.342-1.137
	c2.846-2.382,8.142-6.814,7.15-9.736c-1.027-3.029-4.305-4.566-9.736-4.566c-3.087,0-5.909,0.538-7.314,0.857
	c-1.162,0.265-2.49,0.394-4.059,0.394c-1.533,0-3.141-0.121-4.697-0.237C235.387,324.773,233.82,324.656,232.381,324.656z"/>
<path d="M319.438,383.514c-1.482,0-2.836-0.994-3.229-2.494c-0.469-1.785,0.599-3.61,2.383-4.078
	c15.601-4.094,26.24-11.491,28.466-19.793c1.721-6.418-1.409-13.635-9.303-21.447c-1.311-1.299-1.321-3.412-0.022-4.725
	c1.298-1.312,3.412-1.321,4.725-0.023c4.879,4.831,8.281,9.674,10.108,14.396c1.793,4.631,2.109,9.183,0.945,13.528
	c-2.896,10.808-15.007,19.747-33.224,24.524C320.002,383.477,319.717,383.514,319.438,383.514z"/>
<path d="M154.047,377.945c-0.585,0-1.178-0.153-1.717-0.477c-4.863-2.921-9.811-6.453-14.704-10.5
	c-1.421-1.177-1.621-3.281-0.445-4.703c1.176-1.423,3.282-1.621,4.703-0.445c4.636,3.835,9.308,7.173,13.886,9.922
	c1.582,0.949,2.094,3.001,1.144,4.583C156.287,377.368,155.181,377.945,154.047,377.945z"/>
<g>
	<path fill="#212121" d="M156.793,376.189c-5.759,12.054-2.427,32.386,0.185,44.774c6.357,30.166,36.885,54.963,67.791,55.456
		c53.074,0.845,77.271-56.771,95.638-96.51l-0.968,0.261c-11.182,2.935-23.445,3.795-33.358,2.265
		c-27.978-4.322-39.087-33.576-39.087-33.576s-34.832,60.635-92.943,25.746"/>
	<path d="M225.898,479.771c-0.394,0-0.787-0.004-1.183-0.011c-15.72-0.25-31.759-6.413-45.161-17.353
		c-13.44-10.972-22.62-25.444-25.846-40.754c-4.17-19.791-4.542-34.25-1.112-44.025c-0.089-0.054-0.177-0.105-0.266-0.158
		l0.908-1.513c0.172-0.411,0.353-0.813,0.541-1.208l0.143,0.068l1.847-3.076c16.011,9.611,31.642,12.542,46.458,8.703
		c13.691-3.545,24.305-12.331,30.797-19.077c7.148-7.429,11.037-14.108,11.074-14.175l2.891,1.668l0.023-0.01l3.104-1.184
		c0.025,0.07,2.737,7.059,8.657,14.42c3.427,4.262,7.246,7.816,11.354,10.567c5.067,3.393,10.604,5.571,16.463,6.478
		c9.452,1.46,21.112,0.661,31.991-2.189l7.853-2.112l-2.994,6.481c-0.755,1.631-1.519,3.291-2.292,4.978
		c-9.303,20.232-19.844,43.164-34.822,61.553c-8.314,10.208-16.954,17.755-26.41,23.07
		C249.455,476.793,238.016,479.771,225.898,479.771z M158.553,380.9c-2.586,8.537-2.021,21.753,1.693,39.376
		c2.913,13.821,11.27,26.945,23.533,36.957c5.965,4.867,12.516,8.72,19.472,11.446c7.156,2.807,14.414,4.286,21.57,4.4
		c0.367,0.006,0.735,0.009,1.1,0.009c21.004,0,39.079-9.646,55.224-29.467c14.146-17.366,24.371-39.331,33.367-58.897
		c-10.008,1.969-20.291,2.348-28.941,1.012c-6.86-1.061-13.332-3.61-19.238-7.582c-4.682-3.146-9.008-7.185-12.861-12
		c-3.1-3.872-5.393-7.627-6.958-10.535c-0.52,0.721-1.104,1.508-1.748,2.346c-3.037,3.938-8.047,9.773-14.674,15.209
		c-10.084,8.268-20.949,13.307-32.293,14.979C185.038,390.032,171.865,387.594,158.553,380.9z"/>
</g>
<path fill="#FFFFFF" d="M290.061,386.239l5.733,23.383l18.802-24.997C314.596,384.625,295.46,386.879,290.061,386.239z"/>
<path fill="#FFFFFF" d="M180.326,388.048c0,0-18.984,23.968-19.151,23.3s-2.598-30.537-2.598-30.537
	S176.569,387.547,180.326,388.048z"/>
<ellipse cx="248.959" cy="332.397" rx="2.004" ry="1.931"/>
<ellipse transform="matrix(0.4999 -0.8661 0.8661 0.4999 -168.6285 373.4338)" cx="239.054" cy="332.738" rx="1.931" ry="2.631"/>
<ellipse transform="matrix(0.4999 0.8661 -0.8661 0.4999 462.105 -86.3294)" cx="305.806" cy="356.975" rx="2.432" ry="3.149"/>
<ellipse cx="303.906" cy="349.753" rx="2.088" ry="2.396"/>
<ellipse cx="291.792" cy="352.83" rx="2.666" ry="3.077"/>
<ellipse cx="292.418" cy="361.385" rx="2.54" ry="2.509"/>
<ellipse cx="191.9" cy="347.045" rx="2.028" ry="2.374"/>
<ellipse transform="matrix(-0.4226 -0.9063 0.9063 -0.4226 -27.0223 676.1962)" cx="201.879" cy="346.706" rx="2.375" ry="3.508"/>
<ellipse cx="192.36" cy="359.659" rx="2.655" ry="2.563"/>
<ellipse transform="matrix(-0.8661 -0.4999 0.4999 -0.8661 202.1798 775.6398)" cx="204.984" cy="360.739" rx="2.021" ry="3.298"/>
<g>
	<path fill="#936037" d="M364.922,197.691c7.963-13.832,14.935-26.249,17.2-42.326c1.095-7.753,2.362-16.249,1.724-24.087
		c-17.465,7.034-32.754,18.6-44.576,33.089"/>
	<path d="M367.817,199.358l-5.79-3.333c7.483-13,14.554-25.28,16.788-41.125l0.12-0.861c0.834-5.901,1.69-11.959,1.74-17.761
		c-14.84,6.801-28.186,17.17-38.817,30.202l-5.178-4.223c12.39-15.184,28.267-26.967,45.916-34.076l4.209-1.695l0.369,4.522
		c0.646,7.92-0.561,16.445-1.624,23.966l-0.121,0.858C383.016,172.957,375.289,186.378,367.817,199.358z"/>
</g>
<g>
	<path fill="#E30613" d="M102.151,99.469c15.419,16.133,19.421,34.688,18.258,58.024c-0.653,13.094-6.77,22.253-10.361,34.3
		c-2.446,8.208,0.822,14.766,10.193,14.019c9.973-0.797,18.438-8.046,27.226-12.122c26.486-12.284,55.591-14.46,84.381-15.311
		c22.528-0.666,45.074,0.502,67.392,3.662c10.878,1.54,21.416,4.827,32.074,7.388c5.267,1.266,10.574,2.399,15.952,3.074
		c2.61,0.327,5.229,0.545,7.862,0.606c2.921,0.069,8.834,1.319,5.216-3.032c-2.217-2.666-5.27-4.577-7.632-7.105
		c-3.262-3.49-6.385-7.115-9.23-10.955c-5.757-7.762-6.008-14.772-6.008-14.772c-0.501-6.764,0.752-6.514,1.755-10.271
		c6.453-24.204,38.022-26.092,48.017-47.527c11.087-23.788-1.234-43.237-18.928-57.613c-18.417-9.822-41.502-16.688-62.217-18.859
		c-72.819-7.633-147.219,30.874-202.293,74.966"/>
	<path d="M118.805,209.211c-5.513,0-8.593-2.298-10.24-4.333c-2.781-3.437-3.392-8.423-1.718-14.039
		c1.279-4.29,2.853-8.193,4.375-11.968c2.803-6.948,5.45-13.511,5.851-21.544c0.611-12.255-0.273-21.984-2.783-30.615
		c-2.729-9.387-7.49-17.543-14.555-24.936l4.047-3.868l-2.062-2.576c14.575-11.668,29.698-22.31,44.949-31.631
		c16.759-10.243,33.705-18.9,50.364-25.732c38.384-15.741,75.197-21.904,109.417-18.317c10.449,1.095,21.717,3.406,32.586,6.684
		c11.026,3.326,21.695,7.665,30.854,12.55l0.285,0.151l0.249,0.204c10.345,8.405,17.493,17.359,21.246,26.614
		c4.605,11.357,4.136,23.133-1.396,35.002c-5.069,10.874-14.955,16.968-24.516,22.862c-10.384,6.402-20.191,12.449-23.303,24.114
		c-0.349,1.308-0.728,2.219-1.03,2.952c-0.57,1.377-0.916,2.208-0.62,6.211l0.008,0.118c0.02,0.306,0.458,6.312,5.352,12.912
		c2.524,3.404,5.465,6.892,8.99,10.664c0.928,0.994,2.024,1.917,3.187,2.895c1.558,1.309,3.166,2.663,4.572,4.355
		c1.905,2.291,2.392,4.38,1.446,6.209c-1.487,2.878-5.025,2.606-7.869,2.388c-0.541-0.042-1.053-0.081-1.441-0.09
		c-2.608-0.061-5.291-0.267-8.198-0.632c-6.024-0.756-11.886-2.075-16.316-3.14c-3.144-0.755-6.313-1.583-9.378-2.383
		c-7.312-1.908-14.872-3.882-22.384-4.945c-21.736-3.077-44.221-4.298-66.825-3.63c-12.867,0.38-27.996,1.073-42.645,3.331
		c-15.381,2.37-28.605,6.188-40.43,11.672c-2.619,1.215-5.218,2.732-7.97,4.339c-6.292,3.675-12.798,7.475-20.396,8.082
		C119.917,209.189,119.349,209.211,118.805,209.211z M106.917,99.735c6.544,7.505,11.069,15.752,13.79,25.113
		c2.723,9.366,3.688,19.792,3.04,32.812c-0.457,9.157-3.44,16.555-6.327,23.71c-1.464,3.632-2.98,7.388-4.169,11.377
		c-1.01,3.39-0.825,6.279,0.509,7.928c1.447,1.788,4.18,1.969,6.218,1.807c6.077-0.486,11.654-3.743,17.558-7.191
		c2.764-1.614,5.623-3.284,8.528-4.631c12.402-5.752,26.213-9.747,42.224-12.214c15.009-2.312,30.395-3.02,43.465-3.406
		c22.983-0.679,45.849,0.563,67.958,3.693c7.892,1.118,15.642,3.14,23.135,5.096c3.035,0.792,6.173,1.611,9.252,2.351
		c4.265,1.025,9.89,2.293,15.59,3.007c2.68,0.336,5.141,0.526,7.522,0.582c0.032,0,0.064,0.001,0.098,0.002
		c-0.409-0.356-0.833-0.712-1.265-1.075c-1.26-1.061-2.564-2.158-3.767-3.444c-3.699-3.958-6.799-7.638-9.476-11.247
		c-6.023-8.125-6.606-15.627-6.657-16.557c-0.38-5.18,0.167-6.942,1.113-9.223c0.265-0.635,0.512-1.235,0.747-2.114
		c3.796-14.235,15.212-21.273,26.252-28.08c9.124-5.625,17.74-10.938,21.965-19.998c2.464-5.287,3.774-10.564,3.896-15.684
		c0.11-4.694-0.775-9.399-2.636-13.985c-3.296-8.126-9.692-16.111-19.019-23.736c-17.627-9.346-40.294-16.193-60.707-18.333
		c-33.107-3.47-68.835,2.537-106.185,17.854c-16.333,6.698-32.958,15.194-49.416,25.251
		C135.498,78.36,120.956,88.562,106.917,99.735z"/>
</g>
<path fill="#009FE3" stroke="#FFFFFF" stroke-width="5" stroke-miterlimit="10" d="M211.462,119.543
	c-0.277-11.964,5.638-25.239,14.263-34.259c12.166-12.725,28.033-23.452,46.083-24.551c24.366-1.483,44.459,20.782,32.354,44.424
	c-5.436,10.616-15.698,19.735-25.407,26.431c-13.575,9.363-29.931,18.703-46.834,13.708
	C217.555,141.052,211.726,130.886,211.462,119.543z"/>
<g>
	
		<rect x="253.12" y="88.002" transform="matrix(-0.612 -0.7909 0.7909 -0.612 333.0128 370.1013)" fill="#FFFFFF" width="8.352" height="30.713"/>
	<g>
		<g>
			<path fill="#FFFFFF" d="M251.588,107.643c-4.156-5.374-11.667-6.527-16.774-2.576c-3.938,3.046-5.285,8.233-3.797,12.914
				l11.171-8.642l5.824,7.53l-10.95,8.47c4.054,2.225,9.07,2.076,12.804-0.813C254.975,120.575,255.744,113.016,251.588,107.643z"/>
		</g>
	</g>
	<g>
		<g>
			<path fill="#FFFFFF" d="M279.141,94.056l-6.847-8.851l10.317-7.981c-4.445-2.407-9.926-2.23-14.012,0.93
				c-5.615,4.345-6.463,12.656-1.893,18.565c4.57,5.909,12.828,7.177,18.443,2.833c4.144-3.204,5.682-8.565,4.375-13.53
				L279.141,94.056z"/>
		</g>
	</g>
</g>
<path d="M283.912,285.555c-0.316,0-0.641-0.037-0.962-0.111c-2.245-0.53-3.636-2.778-3.105-5.023
	c1.669-7.072,5.372-13.266,10.714-17.906c5.248-4.562,11.823-7.418,19.016-8.256c4.617-0.538,13.5-0.891,21.132,2.801
	c5.512,2.666,14.723,11.607,13.457,19.938c-0.348,2.279-2.477,3.849-4.756,3.5c-2.28-0.346-3.849-2.477-3.501-4.756
	c0.158-1.047-0.456-3.139-2.661-5.875c-2.09-2.594-4.666-4.559-6.175-5.288c-2.459-1.189-7.875-3.033-16.529-2.023
	c-11.354,1.323-20.001,8.904-22.566,19.784C287.52,284.258,285.805,285.555,283.912,285.555z"/>
<path d="M162.808,286.391c-0.399,0-0.806-0.06-1.208-0.181c-2.208-0.666-3.457-2.996-2.791-5.204
	c1.782-5.9,5.822-11.794,11.376-16.593c5.296-4.574,11.548-7.845,17.606-9.207c3.929-0.883,8.594-0.806,13.137,0.221
	c4.817,1.089,9.103,3.116,12.394,5.865c4.671,3.901,7.013,8.944,6.775,14.583c-0.098,2.305-2.047,4.096-4.349,3.995
	c-2.304-0.099-4.092-2.045-3.995-4.349c0.127-2.985-1.147-5.616-3.784-7.819c-4.482-3.744-12.539-5.654-18.344-4.349
	c-4.671,1.052-9.767,3.74-13.979,7.379c-4.371,3.775-7.511,8.281-8.84,12.688C166.259,285.225,164.601,286.391,162.808,286.391z"/>
</svg>
